<?xml version="1.0" encoding="utf-8"?>
<!-- Generator: Adobe Illustrator 18.0.0, SVG Export Plug-In . SVG Version: 6.00 Build 0)  -->
<!DOCTYPE svg PUBLIC "-//W3C//DTD SVG 1.1//EN" "http://www.w3.org/Graphics/SVG/1.1/DTD/svg11.dtd">
<svg version="1.1" id="Layer_1" xmlns="http://www.w3.org/2000/svg" xmlns:xlink="http://www.w3.org/1999/xlink" x="0px" y="0px"
	 viewBox="0 0 110 132" enable-background="new 0 0 110 132" xml:space="preserve">
<g>
	<path d="M41.4,7.6C41.6,7.5,41.3,7.6,41.4,7.6"/>
	<path d="M41.4,7.6C41.5,7.6,41.4,7.6,41.4,7.6"/>
	<path fill="#68665C" d="M55.3,89.8L55.3,89.8c4.9,0,9.4-0.7,13.7-2c4.7-1.6,9.1-4.9,11.8-8.9c4.4-6.4,8.5-18.8,8.6-31.2v0
		c-0.2-12.4-4.2-24.8-8.6-31.2c-2.7-4-7-7.3-11.7-8.9c-4.4-1.3-9.1-2-13.8-2c-4.8,0-9.5,0.7-13.8,2c-4.7,1.6-9,4.9-11.7,8.9
		c-4.4,6.4-8.5,18.8-8.6,31.2v0c0.2,12.4,4.2,24.8,8.6,31.2c2.7,4,7,7.3,11.7,8.9C45.8,89.1,50.4,89.8,55.3,89.8L55.3,89.8"/>
	<path fill="#FFFFFF" d="M86.8,47.7c0.2,9.3-2.7,20.6-5.5,26.6c-3.1,6.9-7.7,11.1-14.6,12.9c-3.7,0.9-7.6,1.4-11.6,1.4
		c-4,0-7.9-0.5-11.6-1.4c-6.9-1.9-11.5-6-14.6-12.9c-2.8-6-5.6-17.3-5.5-26.6c-0.2-9.3,2.7-20.6,5.5-26.6
		c3.1-6.9,7.7-11.1,14.6-12.9c3.7-0.9,7.6-1.4,11.6-1.4c4,0,7.9,0.5,11.6,1.4c6.9,1.9,11.5,6,14.6,12.9C84.1,27.1,87,38.4,86.8,47.7
		"/>
	<path fill="#68665C" d="M55.3,16.7c3.3,0,6.6,0.5,9.6,1.3c3.2,0.9,5.9,3.1,7.2,6.1c2.9,6.1,4.8,15,4.8,23.6
		c0,8.7-1.9,17.5-4.8,23.6c-1.3,3-4,5.2-7.2,6.1c-3,0.8-6.3,1.3-9.6,1.3h-0.1c-3.3,0-6.6-0.5-9.6-1.3c-3.2-0.9-5.9-3.1-7.2-6.1
		c-2.9-6.1-4.8-15-4.8-23.6c0-8.7,1.9-17.5,4.8-23.6c1.3-3,4-5.2,7.2-6.1c3-0.8,6.3-1.3,9.6-1.3H55.3"/>
	<path fill="#FFFFFF" d="M60,28.5c-0.5-0.8-0.1-0.1-0.6-1"/>
	<polyline fill="#FFFFFF" points="50.2,46 50.2,49.1 39.4,49.1 39.4,46 50.2,46 	"/>
	<path fill="#FFFFFF" d="M47.8,73c-0.2-0.5-0.3-0.7-0.3-1.2c2.3,0,3.8,0,6.2,0c0,0.9-0.5,1.7-1.3,2.2c-0.9,0.6-2.3,0.8-3.2,0.2
		C48.6,74.1,48.1,73.6,47.8,73"/>
	<path fill="#FFFFFF" d="M54.5,70.5l-3.3,0V69h3.3l1-1.2c0.5,0.6,0.5,0.6,1.1,1.2h3.3v1.5l-3.3,0c0,1.6,0,1.9,0,3.8
		c-0.7,0-1.5,0-2.1,0V70.5"/>
	<path fill="#FFFFFF" d="M54.9,65.8c0.7-0.2,1.6-0.6,1.8-1.3c-0.1-1,0.7-1.8,1.2-2.6c0.3-0.3,0.3-0.6,0.2-0.9c1.1,0,2.1,0.9,2.5,1.9
		c0.4,1,0.3,2.3-0.4,3.1c-0.8,1-1.9,1.5-3.3,1.3C56.2,67.1,55.3,66.6,54.9,65.8"/>
	<path fill="#FFFFFF" d="M46.9,52.1c-0.6-0.3-1.4-0.4-2.1-0.1c-0.5,0.1-1.1,0.8-1.1,1.4c0,1.9,0,2.4,0,4.5c0,0.3-0.2,0.5-0.6,0.5
		c-0.3,0-0.6-0.2-0.6-0.5v-4.6c0-0.5-0.1-1-0.5-1.3l-2.4,0.8l-0.2,0.1c0.6,0.4,0.9,0.5,0.9,1.2l0,5.8l0,0.3l0.1,0.2l0.1,0.2l0.1,0.2
		c0.4,0.6,1.1,0.9,1.5,1c0.2,0.1,0.6,0.1,0.8,0.1c0.6,0,1.2,0,1.8-0.5c1-0.8,0.8-2.1,0.8-4c0-0.5,0-0.9,0.4-1.2
		c0.3-0.2,0.7-0.3,1-0.2c0.4,0.1,0.5,0.1,0.9,0.4C47.9,54.7,47.9,52.6,46.9,52.1"/>
	<path fill="#FFFFFF" d="M69,59.4c-1.7-1.7-4.7-4.1-5-5.1c-0.3-0.7-0.2-1.5-0.2-2.3c0.5-0.4,0.9-0.7,1.5-1.2c0,1.2-0.2,2.4,0.4,3.1
		c1.4,1.4,2.7,2.7,4,3.9c0.5,0.5,0.9,1.2,0.5,1.9c-0.2,0.3-0.4,0.7-0.6,1C69.6,60.2,69.4,59.8,69,59.4"/>
	<path fill="#FFFFFF" d="M59.1,50.8c1.3,0,1.8,0,3.1,0v9.2h-3.1L59.1,50.8"/>
	<path fill="#FFFFFF" d="M66.2,51.7c0.3-0.4,0.5-0.5,0.8-0.9l0.8,0.9v2.6c1.1-0.5,0.8-2.1,0.8-3.5c0.7,0.5,1,0.8,1.6,1.4
		c0.4,1.6-0.6,2.5-1.3,3.6l-2.8-2.7V51.7"/>
	<path fill="#FFFFFF" d="M68.7,44.6l0.4-1.8l1.4-0.2l0-4.4c-0.5,0.1-0.8,0.1-1.2,0.2v-3.3c-0.7,0.1-1.5,0.4-2.3,0.6v5.5
		c0,0.3-0.4,0.4-0.5,0.4h-0.1c-0.3,0-0.5-0.2-0.5-0.4c0-2,0-3.4,0-5.3l-2.2,0.3v2.2c-0.8,1.6-1.9,3-3,4.4c1.2,0.1,1.3,0.1,2.4,0.2
		l0.7,1.6H68.7"/>
	<path fill="#FFFFFF" d="M43.7,43.6c0-1.4-0.1-2.4-0.1-3.8c0.5-0.1,0.9,0.2,1.2,0.4c-0.1,1.8-0.1,1.8-0.1,3.7h-1L43.7,43.6"/>
	<path fill="#FFFFFF" d="M43.5,35.3c-0.2-1.4-0.3-1.5-0.4-2.6c-0.3,0-0.5,0-0.9,0v-1c1.6,0,2.4,0,4,0v1c-0.4,0-0.5,0-0.9,0l-0.4,3.3
		C44.5,35.7,44,35.4,43.5,35.3"/>
	<path fill="#FFFFFF" d="M43.4,31c-1.3-1.4-1.4-3.6-1.2-5.5l0,0c0.2,0.7,0.7,1.2,1.4,1.6c-0.1-0.4-0.4-0.7-0.5-1.1
		c-0.3-0.8-0.3-1.9,0.2-2.6c0.4-0.5,0.9-0.8,1.5-0.9c-0.2,0.7-0.3,1.4,0,2.1c0.4-0.3,0.4-0.3,0.7-0.6c0.1-0.1,0.2-0.1,0.3-0.2
		c0.5,1.1,1.1,2.7,0.8,4l-0.2,0.6c-0.1-0.9-0.2-1.4-0.9-1.7c-0.1,0.5,0.3,0.9,0.4,1.6c0.3,1.1,0.1,2.2-0.6,2.8H43.4"/>
	<path fill="#FFFFFF" d="M60,28.5L58.6,30c-0.4-0.4-0.4-0.4-0.8-0.8c0.7-0.7,0.8-0.8,1.6-1.7"/>
	<path fill="#FFFFFF" d="M61.8,24.8c0.3-1.3,0.4-2.8,1.9-3.4c0.6-0.2,1.3-0.1,1.8,0.3c0.6,0.4,0.8,1.2,0.7,1.9
		c-0.4,1.5-2.1,1.8-3.5,2.2L61.8,24.8"/>
	<polyline fill="#FFFFFF" points="71.4,46 71.4,49.2 60.6,49.1 60.6,46 71.4,46 	"/>
	<path fill="#FFFFFF" d="M45.3,67c-0.4-2,2-2.7,2.5-4.3c0.5-2.8,0.6-5.7,2.5-7.8c0.2-4.1,1.5-7.6,4.4-10.6c-0.1-0.9-0.5-1.7-0.8-2.5
		c-0.4,0-0.6-0.1-1-0.4c-0.3-0.4-0.4-0.6-0.4-1c-1,1.2-2.3,2.6-3.6,3.5c-0.3,0.1-0.6-0.2-1-0.6c-1.7-1.3-2-4.3-4.6-4.2
		c-1.2-0.4-1.1-1.8-1.3-2.8c0.4-0.3,1.1-0.3,1.7-0.1c1.6,0.8,2.7,2.6,4.2,3.8c0.4,0.3,0.8,0.7,1.1,0.9c1-0.8,1.8-1.6,2.5-2.9
		c0.5-0.7,1.2-1.1,2.1-1.1l0.6-0.7l-0.3-1.8c-0.6-0.8-1.1-1.6-1.6-2.5c0.2-1,0.4-2.2,1.4-2.8c0.7-0.4,1.2,0.5,1.8-0.1
		c0.4-0.1,0.8,0,1,0.3c0.4,0.7,0.9,1.5,0.9,2.3c-0.3,0.8-0.7,1.6-1,2.4c-0.1,0.2-0.3,0.2-0.5,0.3c0.1,0.3,0.2,0.7,0.4,1
		c0.3,0.1,0.6,0.1,1,0.1c0.3-0.9,1.3-1.3,2.1-1.6l1.8-1.2c-0.3-1.3,0.6-2.5,0.1-3.9c-1-0.5-1.3-1.6-1.5-2.5c0.2-0.6,0.4-1.2,0.9-1.6
		l0.1,0.1c1,1.1,1.9,2.3,2.2,3.7c0.2,1.8,0.4,3.6,0.2,5.5c-1,1-2.1,1.5-3.2,2.2l-0.8,1.6c-0.1,1.6-0.6,3-0.8,4.6
		c0.7,1.9,1.5,4.4,0.9,6.1c-0.5,1-1.5,1.6-2.2,2.2L55.2,52c1.8,2,1.4,4.3,1.5,7.2c0,0.7,1.3,1.3,0.6,2.1c-0.6,0.9-1.5,1.6-1.3,2.8
		c-0.6,0.9-1.9,1.1-2.6,1.1c-0.1,0-0.2-0.1-0.2-0.2c0.1-0.5,0.5-0.9,0.7-1.3c0.7-1,0.4-2.4,1.2-3.3c-0.7-2.2-1.7-4.2-2-6.5l0-0.1
		c-0.5,1.1-0.2,2.1,0,2.9c-1.8,2.3-3.8,4.4-3.8,7.4c-0.8,1.4-1.9,2.6-2.5,4c-0.2,0.2-0.6,0-0.8-0.1C45.6,67.8,45.4,67.5,45.3,67"/>
	<path fill="#FFFFFF" d="M65.2,57.2c1.7,1.7,4.8,4.1,5,5.1c0.3,0.7,0.2,1.5,0.2,2.3c-0.5,0.4-0.9,0.7-1.5,1.2c0-1.2,0.2-2.4-0.4-3.1
		c-1.4-1.4-2.7-2.7-4-3.9c-0.5-0.5-0.9-1.2-0.5-1.9c0.2-0.3,0.4-0.7,0.6-1C64.5,56.5,64.8,56.8,65.2,57.2"/>
	<path fill="#FFFFFF" d="M68,65c-0.3,0.4-0.5,0.5-0.8,0.9l-0.8-0.9v-2.6c-1.1,0.5-0.8,2.1-0.8,3.5c-0.7-0.5-1-0.8-1.6-1.4
		c-0.4-1.6,0.6-2.5,1.3-3.6l2.8,2.7V65"/>
	<path fill="#FFFFFF" d="M63.3,73c0.2-0.5,0.3-0.7,0.3-1.2c-2.3,0-3.8,0-6.2,0c0,0.9,0.5,1.7,1.3,2.2c0.9,0.6,2.3,0.8,3.2,0.2
		C62.5,74.1,63,73.6,63.3,73"/>
	<path fill="#68665C" d="M56.4,86.4c0-1.7,1.7-2.6,2.7-3.7c0.3-0.3,0.4-0.8,0.2-1.3c-0.1-0.3-0.3-0.4-0.5-0.5
		c-0.4-0.1-0.7,0-0.9,0.2c-0.3,0.3-0.4,0.7-0.4,1.1l-1.2,0.1c-0.1-0.6,0.1-1.3,0.5-1.8c0.5-0.6,1.4-0.7,2.2-0.7
		c0.6,0.1,1.4,0.5,1.7,1.2c0.3,0.7,0.2,1.6-0.3,2.3c-0.7,0.7-1.6,1.1-2.2,2l3-0.2c0,0.4,0,0.7,0.1,1.1L56.4,86.4"/>
	<path fill="#68665C" d="M45.8,79.1L45.8,79.1l-2,5.9l-1.2-0.4l1.3-4l0-0.1c-0.5-0.2-1.1-0.3-1.6-0.5l0.3-0.8
		c0.6,0.2,1.3,0.3,1.8-0.2c0.2-0.2,0.2-0.2,0.3-0.3L45.8,79.1"/>
	<path fill="#68665C" d="M67.9,83.5c-0.2,0.2-0.4,0.3-0.7,0.4c-0.3,0.1-0.6,0.1-0.8,0c-0.3-0.1-0.5-0.4-0.6-0.6
		c-0.1-0.4,0-0.8,0.3-1.1c0.2-0.1,0.4-0.2,0.6-0.3c0.2-0.1,0.5-0.1,0.7,0c0.4,0.1,0.7,0.4,0.8,0.8C68.2,82.9,68.1,83.3,67.9,83.5
		 M65.3,80.7c-0.1-0.3-0.2-0.7,0.1-0.9c0.2-0.2,0.4-0.3,0.6-0.3c0.2-0.1,0.5-0.1,0.7,0c0.4,0.1,0.6,0.5,0.5,0.8
		c0,0.2-0.1,0.4-0.3,0.6c-0.2,0.1-0.4,0.2-0.6,0.3c-0.2,0.1-0.5,0.1-0.7,0C65.6,81,65.4,80.9,65.3,80.7z M69.4,82.3
		c-0.2-0.6-0.5-1-1.1-1.2L67.9,81c0.4-0.3,0.7-0.8,0.6-1.3c-0.1-0.6-0.5-1-1.1-1.2c-0.5-0.2-1.1-0.1-1.6,0c-0.5,0.1-1.1,0.4-1.4,0.7
		c-0.4,0.4-0.6,1-0.4,1.6c0.1,0.5,0.7,0.8,1.2,0.9l-0.3,0.2c-0.5,0.5-0.6,1-0.4,1.6c0.1,0.7,0.7,1.2,1.3,1.3c0.5,0.1,1.1,0.1,1.6,0
		c0.6-0.1,1.1-0.4,1.5-0.7C69.3,83.7,69.5,83,69.4,82.3z"/>
	<path fill="#68665C" d="M51.5,85.2c-0.2,0.1-0.5,0.2-0.8,0.2c-0.3,0-0.6-0.1-0.8-0.3c-0.3-0.2-0.4-0.5-0.4-0.8
		c0-0.4,0.3-0.8,0.7-0.9c0.2-0.1,0.4-0.1,0.7-0.1c0.2,0,0.5,0.1,0.6,0.2c0.4,0.2,0.6,0.6,0.5,1C52,84.8,51.8,85,51.5,85.2
		 M49.9,81.7c-0.1-0.3,0.1-0.7,0.4-0.9c0.2-0.1,0.4-0.2,0.7-0.1c0.2,0,0.5,0.1,0.7,0.2c0.3,0.2,0.4,0.6,0.3,0.9
		c-0.1,0.2-0.2,0.4-0.4,0.4c-0.2,0.1-0.4,0.1-0.6,0.1c-0.2,0-0.5-0.1-0.6-0.2C50.1,82.1,50,82,49.9,81.7z M53.3,84.6
		c0-0.6-0.1-1.1-0.7-1.5l-0.3-0.2c0.4-0.1,0.9-0.6,1-1.1c0.1-0.6-0.2-1.1-0.7-1.5c-0.4-0.3-1-0.4-1.5-0.5c-0.6,0-1.1,0-1.6,0.3
		c-0.5,0.3-0.9,0.8-0.8,1.4c0,0.5,0.4,1,0.8,1.2l-0.4,0.1c-0.6,0.3-0.8,0.8-0.9,1.4c-0.1,0.7,0.3,1.3,0.9,1.7c0.4,0.3,1,0.4,1.6,0.5
		c0.6,0,1.2-0.1,1.6-0.3C52.9,85.8,53.3,85.2,53.3,84.6z"/>
	<polyline fill="#68665C" points="81.3,24.8 75.5,27.3 75,26.1 80.8,23.6 81.3,24.8 	"/>
	<path fill="#68665C" d="M59.5,14.9L58,8.5l1.4,0.1c0.3,1.6,0.6,3.4,0.9,4.7c0.6-1.2,1.2-3,1.8-4.5l1.3,0.1l-2.7,6L59.5,14.9"/>
	<polyline fill="#68665C" points="34.9,18.6 33.5,21.1 32.3,20.4 33.9,17.6 33,17.1 30.8,21.1 36.3,24.1 38.5,20.1 37.6,19.6 
		36,22.5 34.5,21.6 35.9,19.1 34.9,18.6 	"/>
	<path fill="#68665C" d="M30.7,47.9H29h0c0-1.4-0.2-2.2,0.7-2.4c0.3-0.1,0.7-0.1,0.9,0.2C30.8,46.1,30.7,46.7,30.7,47.9 M28,47.9
		h-1.5c0-1.4-0.2-2.2,0.7-2.3c0.5,0,0.7,0.1,0.8,0.4C28.1,46.4,28,46.7,28,47.9z M31.6,45.1c-0.3-0.7-1-0.9-1.8-0.9
		c-0.6,0.1-1.1,0.5-1.4,1.2c-0.1-0.4-0.5-0.9-1.1-0.9c-0.6-0.1-1.2,0.1-1.5,0.6c-0.4,0.5-0.2,2.8-0.3,4.2l6.2,0l0-0.5
		C31.8,46.3,31.9,46,31.6,45.1z"/>
	<polyline fill="#68665C" points="81.3,28.3 82.3,28.1 83.6,32.9 82.6,33.2 82.1,31.4 77.1,32.7 76.7,31.4 81.8,30.1 81.3,28.3 	"/>
	<path fill="#68665C" d="M49.6,15.3c-0.7,0.1-1.4,0-2-0.3c-0.5-0.3-0.7-0.7-0.8-1.1l-0.7-4.5l1.3-0.2l0.7,4.5
		c0.1,0.4,0.4,0.6,0.7,0.7c0.2,0.1,0.4,0,0.6,0"/>
	<path fill="#68665C" d="M49.6,15.3c0.7-0.1,1.4-0.4,1.8-0.9c0.4-0.4,0.4-0.8,0.4-1.3L51,8.6l-1.3,0.2l0.7,4.5
		c0,0.3-0.2,0.7-0.5,0.9c-0.2,0.1-0.4,0.2-0.6,0.2"/>
	<path fill="#68665C" d="M80.6,39.1l-0.2-1.5l2.7,0.4h0h0h0h0L80.6,39.1 M84.2,37.1l-6.5-1.3l0.2,1.3l1.4,0.3l0.3,2.2l-1.3,0.6
		l0.2,1.3l5.9-3L84.2,37.1z"/>
	<path fill="#68665C" d="M83.3,47.9l0.1,0l0.1,0l0.1,0c0.4-0.2,0.5-0.8,0.5-1.2c0-0.4-0.2-0.9-0.6-1.1c-0.2-0.1-0.5-0.1-0.6,0.1
		c-0.7,1-0.2,3.3-2.1,3.6c-0.8,0.1-1.5-0.2-1.9-0.8c-0.6-1-0.6-2.6,0-3.5c0.4-0.5,0.9-0.8,1.6-0.8l0.1,1.2c-0.4,0.1-0.8,0.2-1,0.6
		c-0.3,0.6-0.2,1.6,0.3,2c0.2,0.2,0.6,0.2,0.8,0.1c0.7-0.5,0.6-1.8,0.9-2.7c0.1-0.4,0.5-0.7,0.8-0.9c0.6-0.3,1.5-0.2,2,0.3
		c0.8,0.8,0.9,2.3,0.5,3.2c-0.2,0.6-0.9,1.1-1.7,1.2L83.3,47.9L83.3,47.9"/>
	<path fill="#68665C" d="M32.6,38.5c-0.1,0.7-0.4,1.4-0.9,1.8c-0.4,0.4-0.8,0.4-1.3,0.4l-4.5-0.7l0.2-1.3l4.5,0.7
		c0.4,0,0.7-0.2,0.9-0.5c0.1-0.2,0.2-0.4,0.2-0.6"/>
	<path fill="#68665C" d="M32.6,38.4c0.1-0.7,0-1.4-0.3-2c-0.3-0.5-0.7-0.7-1.1-0.8L26.7,35l-0.2,1.3L31,37c0.3,0.1,0.6,0.4,0.7,0.7
		c0.1,0.2,0.1,0.4,0,0.6"/>
	<path fill="#68665C" d="M40.4,15.8l-0.7-2.6v0v0v0l0,0l2,1.8L40.4,15.8 M39.6,11.8l-1.2,0.7l1.4,6.5l1.1-0.7l-0.3-1.4l1.9-1.2
		l1.1,0.9l1.1-0.7L39.6,11.8z"/>
	<polyline fill="#68665C" points="70.2,13.8 67.5,12.7 68,11.5 71.1,12.7 71.5,11.8 67.2,10 64.8,15.8 69.1,17.5 69.5,16.6 
		66.4,15.3 67.1,13.7 69.7,14.8 70.2,13.8 	"/>
	<path fill="#68665C" d="M30.6,29.9L29,29.4c0.3-1.1,0.5-2.1,1.3-2.1c0.3,0.1,0.5,0.1,0.7,0.3C31.3,28,30.9,28.8,30.6,29.9
		 M31.9,27.6c0-0.4,0-0.8-0.4-1.1C31.1,26.2,30.6,26,30,26c-1.4,0.2-1.6,1.8-2.4,4.3l6,1.8l0.4-1.2l-2.4-0.7l-0.1,0
		c0.2-0.6,0.4-1.3,0.5-1.5c0.4-1,2,0,2.7-0.1l0.4-1.2C34.1,27.4,32.6,26.5,31.9,27.6z"/>
	<path fill="#68665C" d="M76.8,19.1c-0.2,0.2-0.4,0.3-0.7,0.3c-0.5,0-0.9-0.7-1.6-1.6l1.3-1C76.5,17.8,77.3,18.5,76.8,19.1
		 M75.8,15.2l-5,3.8l0.8,1l2-1.5l0.1-0.1c0.4,0.5,0.8,1.1,0.9,1.3c0.6,0.9-1.2,1.6-1.5,2.2l0.8,1c0.6-0.9,2.2-1.5,1.7-2.8
		c0.4,0.2,0.7,0.4,1.1,0.3c0.5-0.1,0.9-0.4,1.2-0.9C78.6,18.4,77.4,17.3,75.8,15.2z"/>
	<rect x="6" y="95.2" fill="#68665C" width="98" height="14.3"/>
	<path fill="#68665C" d="M55,102.3"/>
	<rect x="6" y="111.7" fill="#CD1644" width="98" height="14.3"/>
	<path fill="#CD1644" d="M55,118.9"/>
	<path fill="#FFFFFF" d="M33.2,105.7c0.3,0,0.6,0,0.9-0.1c0.5-0.2,0.9-0.6,0.9-1.1l0-6.7H37v6.7c0,0.7-0.2,1.3-0.9,1.8
		c-0.8,0.7-1.8,0.9-2.9,0.9h0c-1.1,0-2.1-0.3-2.9-0.9c-0.7-0.5-0.8-1.1-0.9-1.8v-6.7h1.9l0,6.7c0,0.6,0.4,1,0.9,1.1
		C32.6,105.7,32.9,105.7,33.2,105.7"/>
	<polyline fill="#FFFFFF" points="66,101.2 61.7,101.2 61.7,99.2 66.6,99.2 66.6,97.6 59.8,97.6 59.8,106.9 66.6,106.9 66.6,105.4 
		61.7,105.4 61.7,102.8 66,102.8 66,101.2 	"/>
	<path fill="#FFFFFF" d="M91.2,105.7c0.3,0,0.6,0,0.9-0.1c0.5-0.2,0.9-0.6,0.9-1.1l0-6.7H95v6.7c0,0.7-0.2,1.3-0.9,1.8
		c-0.8,0.7-1.8,0.9-2.9,0.9h0c-1.1,0-2.1-0.3-2.9-0.9c-0.7-0.5-0.8-1.1-0.9-1.8v-6.7h1.9v6.7c0,0.6,0.5,1,0.9,1.1
		C90.6,105.7,90.9,105.7,91.2,105.7"/>
	<path fill="#FFFFFF" d="M15.1,97.7c1.9,0,3,0,4.5,0c1.4,0,2.6,0.8,2.7,2.2c0.1,1-0.2,1.8-1.4,2.1c1,0.3,1.7,1.2,1.7,2.5
		c0,1.1-0.8,2.5-3.1,2.5h-4.4V97.7"/>
	<path fill="#68665C" d="M17,102.8c0.7,0,1.6,0,2.5,0c0.7,0,1.2,0.7,1.2,1.2c0,0.6-0.3,1.2-1,1.2c-0.7,0.1-0.7,0.1-2.7,0.1L17,102.8
		"/>
	<path fill="#68665C" d="M17,99.1c0.9,0,1.5,0,2.3,0c0.6,0,1.2,0.3,1.2,1c0,0.7-0.4,1.2-1.1,1.2c-0.7,0-1.4,0-2.3,0V99.1"/>
	<path fill="#FFFFFF" d="M76,103.4l1.2-3.9v0v0l0,0v0l1.2,3.9H76 M78.2,97.7h-2l-3.3,9.3h1.9l0.7-2h3.4l0.7,2h1.9L78.2,97.7z"/>
	<path fill="#FFFFFF" d="M49.6,101.5c-0.6,0.1-0.8,0.1-2.6,0.1v-2.4c0.9,0,1.9,0,2.5,0c0.6,0.1,1.1,0.4,1.1,1.1
		C50.5,101,50.1,101.5,49.6,101.5 M50.5,102.4c1-0.3,2-0.7,1.9-2.5c-0.1-1.6-1.5-2.1-3-2.2c-1.6,0-2.6,0-4.4,0v9.3h1.9l0-3.8
		c0.9,0,1.5-0.1,2.4,0c1.6,0.1,0.9,3.8,1.4,3.8h1.8C51.9,105.5,52.7,102.9,50.5,102.4z"/>
	<path fill="#FFFFFF" d="M17.6,123.4l-3.2-9.3h2c0.7,2.3,1.3,4.9,2,6.9c0.7-1.9,1.4-4.6,2-6.9h2l-3.1,9.3H17.6"/>
	<polyline fill="#FFFFFF" points="34.3,117.7 30.1,117.7 30.1,115.7 35,115.7 35,114.2 28.1,114.2 28.1,123.4 35,123.4 35,121.9 
		30.1,121.9 30.1,119.3 34.3,119.3 34.3,117.7 	"/>
	<rect x="56" y="114.2" fill="#FFFFFF" width="2" height="9.3"/>
	<polyline fill="#FFFFFF" points="63.4,115.7 63.4,114.2 70.9,114.2 70.9,115.7 68.1,115.7 68.1,123.4 66.2,123.4 66.2,115.7 
		63.4,115.7 	"/>
	<path fill="#FFFFFF" d="M77.8,119.9L79,116v0l0,0v0v0l1.2,3.9H77.8 M80,114.2h-2l-3.3,9.3h1.9l0.7-2h3.4l0.7,2h1.9L80,114.2z"/>
	<path fill="#FFFFFF" d="M46.2,118c-0.6,0.1-0.8,0.1-2.6,0.1v-2.4c0.9,0,1.9-0.1,2.5,0c0.6,0,1.1,0.4,1.1,1.1
		C47.1,117.5,46.7,118,46.2,118 M47.1,118.9c1-0.3,2-0.7,1.9-2.5c-0.1-1.6-1.5-2.1-3-2.2c-1.6,0-2.6,0-4.4,0v9.3h2l0-3.8
		c0.9,0,1.5-0.1,2.4,0c1.6,0.1,1,3.8,1.4,3.8h1.8C48.5,121.9,49.3,119.4,47.1,118.9z"/>
	<path fill="#FFFFFF" d="M87.7,120.5c0,1.3,1.1,3.1,3.9,3.1c2.3,0,3.9-1.1,3.9-3.1c0-3.1-5.7-2.3-5.7-3.9c0-0.7,0.5-1.2,1.9-1.2
		c1.3,0,1.7,0.7,1.7,1.5l1.8-0.1c0-0.6-0.3-2.9-3.7-2.9c-2.5,0-3.6,1.4-3.6,3.1c0,3.1,5.6,2,5.6,3.9c0,1.1-1.1,1.3-2.1,1.3
		c-1.3,0-2-1-2-1.7L87.7,120.5"/>
</g>
</svg>
